<!DOCTYPE svg PUBLIC "-//W3C//DTD SVG 1.1//EN" "http://www.w3.org/Graphics/SVG/1.1/DTD/svg11.dtd">
<!-- Uploaded to: SVG Repo, www.svgrepo.com, Transformed by: SVG Repo Mixer Tools -->
<svg fill="#ffffff" width="800px" height="800px" viewBox="0 0 24 24" id="forward-3" data-name="Flat Color" xmlns="http://www.w3.org/2000/svg" class="icon flat-color" stroke="#ffffff" transform="rotate(180)">
<g id="SVGRepo_bgCarrier" stroke-width="0"/>
<g id="SVGRepo_tracerCarrier" stroke-linecap="round" stroke-linejoin="round"/>
<g id="SVGRepo_iconCarrier">
<path id="primary" d="M17,2a1,1,0,0,0-1,1v7.08L7.57,4.18a1,1,0,0,0-1-.07A1,1,0,0,0,6,5V19a1,1,0,0,0,.54.89A1,1,0,0,0,7,20a1,1,0,0,0,.57-.18L16,13.92V21a1,1,0,0,0,2,0V3A1,1,0,0,0,17,2Z" style="fill: #ffffff;"/>
</g>
</svg>